<?xml version="1.0" standalone="no"?>
<!DOCTYPE svg PUBLIC "-//W3C//DTD SVG 20010904//EN"
 "http://www.w3.org/TR/2001/REC-SVG-20010904/DTD/svg10.dtd">
<svg version="1.0" xmlns="http://www.w3.org/2000/svg"
 width="170.000000pt" height="225.000000pt" viewBox="0 0 170.000000 225.000000"
 preserveAspectRatio="xMidYMid meet">

<g transform="translate(0.000000,225.000000) scale(0.100000,-0.100000)"
fill="#000000" stroke="none">
<path d="M175 2240 l180 -6 -171 -2 -171 -2 -6 -622 c-4 -343 -7 -844 -7
-1115 l0 -492 850 0 850 0 -2 1114 c-2 612 -7 1117 -11 1122 -5 4 -387 8 -850
9 -463 0 -761 -2 -662 -6z m242 -6 c-3 -3 -12 -4 -19 -1 -8 3 -5 6 6 6 11 1
17 -2 13 -5z m1237 -104 c-1 -41 -2 -101 -3 -132 l-1 -58 -810 0 -810 0 0 130
0 130 598 2 c328 2 694 3 812 3 l215 0 -1 -75z m33 -382 c-1 -51 -3 -12 -3 87
0 99 2 141 3 93 2 -48 2 -129 0 -180z m-1335 -80 c3 -128 3 -236 1 -240 -2 -5
-72 -8 -154 -8 -111 0 -151 3 -154 13 -2 6 -6 114 -8 240 l-4 227 157 0 158 0
4 -232z m460 27 c1 -113 2 -220 2 -237 l1 -33 -152 -3 -153 -3 0 63 c0 35 -3
143 -7 241 l-6 177 156 0 157 0 2 -205z m504 138 c44 -29 52 -38 40 -45 -9 -5
-16 -20 -16 -33 0 -32 -27 -33 -32 -2 -2 16 -10 22 -28 22 -20 0 -26 -6 -28
-27 -4 -34 -29 -37 -34 -5 -5 33 -55 37 -60 5 -2 -15 -10 -23 -23 -23 -28 0
-21 33 13 59 15 12 43 35 62 53 19 18 38 33 43 33 4 0 32 -17 63 -37z m72 -86
c3 -21 9 -27 27 -27 18 0 24 6 27 28 2 16 9 27 18 27 11 0 15 -12 15 -45 0
-40 -3 -45 -25 -49 l-25 -4 25 -6 c29 -8 41 -41 14 -41 -16 0 -16 -1 2 -14 21
-16 13 -31 -21 -39 -15 -4 -13 -5 8 -6 21 -1 27 -6 27 -23 0 -13 -5 -30 -10
-38 -8 -12 -10 -11 -10 8 0 17 -6 22 -25 22 -20 0 -25 -5 -25 -24 0 -14 -4
-28 -10 -31 -6 -4 -10 8 -10 29 0 31 -3 36 -24 36 -21 0 -25 -6 -28 -32 -4
-41 -32 -45 -36 -5 -3 21 -9 27 -28 27 -20 0 -24 -5 -24 -30 0 -23 -5 -30 -19
-30 -15 0 -21 8 -23 33 -2 27 -7 32 -28 32 -22 0 -25 -5 -28 -38 -4 -45 -23
-48 -51 -8 -26 36 -27 61 -3 61 16 1 16 1 0 11 -21 12 -24 39 -5 40 10 0 10 2
0 6 -23 9 -15 43 10 44 22 1 22 1 -2 8 -19 5 -24 14 -26 43 0 23 4 39 12 42 9
4 13 -3 13 -19 0 -22 4 -25 35 -25 31 0 35 3 35 25 0 24 28 38 31 15 1 -5 2
-16 3 -22 0 -7 14 -13 31 -13 25 0 30 4 33 28 4 32 25 31 30 -1 2 -16 10 -22
27 -22 18 0 25 7 30 31 8 36 29 33 33 -4z m42 -3 c0 -8 -7 -14 -15 -14 -8 0
-15 9 -15 20 0 13 5 18 15 14 8 -4 15 -12 15 -20z m-52 -243 c4 -41 35 -40 40
2 6 49 27 24 25 -29 -1 -27 -2 -75 -3 -106 -1 -52 -3 -58 -23 -59 -20 -1 -20
-2 3 -8 21 -6 25 -13 27 -51 1 -25 4 -81 7 -125 l5 -80 -137 -1 c-75 -1 -157
-6 -182 -12 -51 -12 -55 -11 -42 15 12 21 24 124 24 196 0 41 2 47 21 48 21 0
21 1 2 8 -17 7 -20 18 -22 85 -1 69 0 76 18 76 15 0 19 7 19 35 0 28 4 35 20
35 16 0 20 -7 20 -30 0 -27 3 -30 30 -30 27 0 30 3 30 30 0 20 5 30 15 30 10
0 15 -10 15 -31 0 -27 3 -30 28 -27 23 2 28 8 30 36 4 42 26 37 30 -7z m299
-293 c-1 -62 -3 -14 -3 107 0 121 2 172 3 113 2 -59 2 -158 0 -220z m-1660
-205 c-1 -59 -3 -14 -3 102 0 116 2 164 3 108 2 -56 2 -151 0 -210z m343 87
c0 -96 1 -245 0 -332 l0 -156 -67 34 c-69 34 -140 54 -197 54 l-34 0 -6 133
c-3 72 -7 203 -10 289 l-4 157 152 3 c83 2 154 1 158 -2 4 -3 8 -84 8 -180z
m458 -294 l2 -479 -52 7 c-57 8 -203 73 -230 103 -16 17 -18 63 -24 427 -5
286 -4 410 3 414 6 4 76 7 155 7 l143 0 3 -479z m658 226 c6 -4 14 -22 17 -39
6 -31 5 -33 -23 -33 -17 0 -30 -4 -30 -10 0 -5 14 -10 30 -10 20 0 30 -5 30
-15 0 -8 -9 -15 -19 -15 -31 0 -34 -18 -4 -22 36 -4 43 -28 8 -28 -15 0 -24
-4 -20 -10 3 -5 15 -10 26 -10 14 0 19 -5 17 -17 -2 -11 -11 -17 -21 -15 -22
4 -22 -15 1 -22 9 -3 -5 -3 -33 0 -27 3 -51 7 -53 9 -1 1 -7 28 -12 60 -5 32
-14 63 -20 69 -7 7 -8 2 -1 -19 14 -45 20 -115 10 -115 -5 0 -9 11 -9 25 0 30
-11 32 -35 5 -10 -11 -22 -20 -27 -20 -16 0 -8 27 16 49 18 17 25 19 29 9 3
-7 6 -4 6 8 1 31 -11 37 -23 12 -16 -30 -41 -37 -33 -9 3 15 1 21 -6 18 -7 -2
-11 -14 -9 -26 3 -22 3 -22 -25 -6 l-28 17 29 -25 c23 -20 27 -30 22 -51 -8
-33 -46 -37 -46 -5 0 18 2 19 15 9 26 -21 25 -7 -1 23 l-24 28 0 -47 c0 -47
-13 -52 -23 -9 -4 15 -5 14 -6 -7 -1 -23 -7 -29 -40 -38 -22 -6 -58 -17 -80
-25 -40 -14 -41 -14 -41 9 0 15 9 26 28 33 27 11 27 11 5 18 -13 4 -23 15 -23
26 0 13 8 19 23 20 l22 2 -22 4 c-21 4 -34 33 -15 33 4 0 6 29 6 65 -2 74 4
82 67 94 55 11 330 13 345 3z m-522 -64 c-3 -4 -9 -8 -15 -8 -5 0 -9 4 -9 8 0
5 7 9 15 9 8 0 12 -4 9 -9z m61 -8 c-3 -5 0 -10 7 -11 10 0 10 -2 1 -6 -18 -7
-16 -30 3 -37 12 -4 15 -17 12 -48 -3 -38 -7 -44 -33 -49 -17 -4 -51 -7 -77
-8 l-48 -1 0 69 c0 55 3 70 16 75 21 8 54 -2 54 -17 0 -6 7 -2 16 9 8 10 13
15 11 9 -3 -5 2 -16 10 -24 12 -11 14 -11 12 0 -3 28 1 49 12 49 5 0 7 -4 4
-10z m345 -160 c0 -14 -7 -20 -22 -20 -20 0 -21 1 -3 20 10 11 20 20 22 20 1
0 3 -9 3 -20z m307 -122 c-2 -13 -4 -3 -4 22 0 25 2 35 4 23 2 -13 2 -33 0
-45z m-1640 -10 c-3 -7 -5 -2 -5 12 0 14 2 19 5 13 2 -7 2 -19 0 -25z m188
-20 c84 -27 140 -66 223 -153 122 -127 233 -183 382 -192 168 -10 283 40 439
191 60 57 127 112 154 125 92 44 217 66 217 38 0 -21 -45 -148 -70 -197 -72
-144 -198 -269 -335 -335 -133 -64 -204 -79 -365 -78 -163 0 -249 20 -388 90
-173 85 -324 257 -388 443 -14 39 -23 78 -20 85 6 17 69 10 151 -17z m1442
-50 c-3 -8 -6 -5 -6 6 -1 11 2 17 5 13 3 -3 4 -12 1 -19z m-1597 -53 c0 -5 -5
-3 -10 5 -5 8 -10 20 -10 25 0 6 5 3 10 -5 5 -8 10 -19 10 -25z m1571 -12
c-12 -20 -14 -14 -5 12 4 9 9 14 11 11 3 -2 0 -13 -6 -23z m-1537 -58 l17 -30
-20 24 c-12 13 -21 28 -21 34 0 12 0 11 24 -28z m1517 8 c-12 -20 -14 -14 -5
12 4 9 9 14 11 11 3 -2 0 -13 -6 -23z m-121 -193 c-17 -22 -37 -43 -43 -47 -6
-4 6 14 27 40 21 26 40 47 43 47 3 0 -10 -18 -27 -40z m-1150 -108 c3 -3 -4 0
-15 6 -11 6 -47 39 -80 74 l-60 62 75 -69 c41 -38 77 -71 80 -73z m1074 23
c-28 -22 -40 -18 -13 4 13 11 26 17 28 15 3 -2 -4 -11 -15 -19z m-929 -113
c-3 -3 -11 0 -18 7 -9 10 -8 11 6 5 10 -3 15 -9 12 -12z m652 -38 c-3 -3 -12
-4 -19 -1 -8 3 -5 6 6 6 11 1 17 -2 13 -5z m-404 -31 c-7 -2 -19 -2 -25 0 -7
3 -2 5 12 5 14 0 19 -2 13 -5z m270 0 c-7 -2 -19 -2 -25 0 -7 3 -2 5 12 5 14
0 19 -2 13 -5z"/>
<path d="M1406 2152 c-7 -12 33 -133 50 -152 20 -20 35 -1 64 78 17 46 20 66
12 74 -12 12 -12 11 -43 -74 -7 -21 -16 -38 -20 -38 -4 0 -13 23 -20 50 -13
51 -32 79 -43 62z"/>
<path d="M117 2144 c-10 -11 2 -24 22 -24 20 0 31 -35 31 -97 0 -23 4 -33 13
-31 7 3 13 28 15 66 2 52 6 61 23 64 11 2 21 8 22 13 2 11 -115 20 -126 9z"/>
<path d="M281 2136 c-22 -26 -9 -60 27 -72 39 -12 57 -28 48 -43 -12 -18 -50
-12 -64 10 -10 16 -17 18 -25 10 -18 -18 21 -51 59 -51 37 0 64 22 64 51 0 14
-13 26 -45 40 -25 11 -45 26 -45 34 0 20 29 19 52 -2 22 -19 37 -9 22 15 -14
22 -77 28 -93 8z"/>
<path d="M410 2137 c0 -8 11 -43 24 -78 33 -88 52 -86 88 6 14 39 23 74 18 79
-14 14 -27 -2 -40 -51 -19 -71 -21 -71 -44 -8 -20 55 -46 85 -46 52z"/>
<path d="M658 2125 c-33 -29 -38 -51 -9 -35 18 9 20 6 23 -42 2 -30 8 -53 16
-56 9 -3 12 17 12 77 0 45 -3 81 -7 81 -5 0 -20 -12 -35 -25z"/>
<path d="M765 2130 c-28 -31 -10 -74 33 -78 20 -2 32 -9 32 -18 0 -20 -27 -29
-45 -14 -18 15 -30 7 -22 -15 9 -21 60 -19 80 3 22 24 23 105 1 126 -21 22
-57 20 -79 -4z m63 -29 c4 -28 -17 -45 -35 -29 -14 11 -17 40 -6 52 14 14 38
0 41 -23z"/>
<path d="M906 2128 c-22 -31 -21 -101 2 -121 37 -34 92 -11 92 37 0 31 -24 50
-55 44 -20 -4 -25 -1 -25 14 0 23 27 35 43 19 15 -15 27 -14 27 3 0 32 -63 35
-84 4z m62 -85 c-3 -31 -34 -44 -44 -19 -9 24 3 46 26 46 17 0 21 -5 18 -27z"/>
<path d="M1036 2128 c-8 -32 -7 -68 2 -68 4 0 13 4 21 9 22 14 41 2 41 -25 0
-31 -25 -41 -49 -20 -24 21 -38 4 -15 -18 18 -18 47 -21 75 -6 27 15 26 75 -2
90 -11 7 -27 9 -36 6 -10 -4 -13 -1 -11 12 2 11 14 18 36 20 48 5 39 22 -12
22 -37 0 -45 -4 -50 -22z"/>
<path d="M1226 2088 c-9 -12 -16 -32 -16 -44 0 -45 72 -73 100 -39 17 21 7 29
-18 14 -21 -13 -52 -7 -52 11 0 5 16 10 35 10 24 0 38 5 42 16 17 46 -62 74
-91 32z m62 -15 c2 -8 -6 -13 -22 -13 -25 0 -33 10 -19 24 10 10 36 3 41 -11z"/>
<path d="M1347 2014 c-8 -8 1 -24 14 -24 5 0 9 7 9 15 0 15 -12 20 -23 9z"/>
<path d="M1540 2004 c0 -9 5 -14 12 -12 18 6 21 28 4 28 -9 0 -16 -7 -16 -16z"/>
<path d="M1267 1353 c-4 -3 -7 -24 -7 -45 0 -36 2 -38 30 -38 26 0 30 4 30 26
0 47 -31 80 -53 57z"/>
<path d="M1211 824 c0 -11 3 -14 6 -6 3 7 2 16 -1 19 -3 4 -6 -2 -5 -13z"/>
<path d="M910 920 c0 -5 5 -10 10 -10 6 0 10 5 10 10 0 6 -4 10 -10 10 -5 0
-10 -4 -10 -10z"/>
<path d="M300 425 c-49 -50 -49 -60 3 -99 35 -26 47 -13 17 19 l-24 25 42 43
c40 40 45 57 17 57 -6 0 -31 -20 -55 -45z"/>
<path d="M1328 427 c-16 -13 -28 -29 -28 -36 0 -11 4 -10 18 2 28 25 32 21 32
-28 0 -55 14 -58 60 -10 23 24 29 35 18 35 -8 0 -21 -7 -28 -15 -21 -26 -30
-17 -30 30 0 25 -3 45 -7 45 -5 -1 -20 -11 -35 -23z"/>
<path d="M1208 317 l-27 -22 33 -40 c45 -53 64 -39 24 17 -10 14 -10 22 0 38
23 37 11 40 -30 7z"/>
<path d="M447 282 c-23 -26 -21 -58 5 -76 25 -18 58 -21 58 -6 0 6 -9 10 -20
10 -11 0 -23 7 -27 15 -9 24 3 28 31 10 14 -9 30 -14 36 -10 14 8 13 48 -2 63
-18 18 -63 14 -81 -6z m71 -20 c3 -9 -2 -13 -14 -10 -9 1 -19 9 -22 16 -3 9 2
13 14 10 9 -1 19 -9 22 -16z"/>
<path d="M631 212 c-11 -33 -21 -64 -21 -71 0 -24 20 -9 35 25 18 42 53 45 46
4 -6 -46 -6 -55 3 -60 12 -7 37 66 29 85 -3 9 -16 18 -30 21 -17 5 -23 12 -21
27 7 45 -20 24 -41 -31z"/>
<path d="M1026 224 c-33 -33 -7 -94 40 -94 21 0 64 34 64 50 0 16 -14 11 -33
-10 -18 -21 -33 -25 -41 -12 -3 5 8 19 25 31 24 18 28 25 18 37 -15 19 -54 18
-73 -2z m47 -11 c8 -7 -25 -33 -35 -27 -4 3 -5 11 -1 19 5 16 25 20 36 8z"/>
<path d="M812 147 c3 -60 22 -70 26 -14 6 68 52 59 52 -10 0 -18 5 -33 11 -33
6 0 9 21 7 53 l-3 52 -48 2 -48 2 3 -52z"/>
</g>
</svg>
