<?xml version="1.0" standalone="no"?>
<!DOCTYPE svg PUBLIC "-//W3C//DTD SVG 20010904//EN"
 "http://www.w3.org/TR/2001/REC-SVG-20010904/DTD/svg10.dtd">
<svg version="1.0" xmlns="http://www.w3.org/2000/svg"
 width="225.000000pt" height="225.000000pt" viewBox="0 0 225.000000 225.000000"
 preserveAspectRatio="xMidYMid meet">

<g transform="translate(0.000000,225.000000) scale(0.100000,-0.100000)"
fill="#000000" stroke="none">
<path d="M949 2200 c-353 -60 -664 -299 -815 -625 -80 -173 -114 -417 -85
-615 72 -487 486 -877 976 -918 305 -26 584 64 817 261 145 123 278 336 333
531 172 609 -231 1250 -855 1362 -80 14 -296 17 -371 4z m201 -125 l0 -85 40
0 c40 0 45 -5 34 -34 -7 -17 -35 -20 -96 -10 l-38 7 0 103 0 104 30 0 30 0 0
-85z m-150 56 c0 -14 -10 -21 -36 -25 -26 -5 -34 -12 -32 -24 3 -13 12 -16 41
-14 32 2 37 0 37 -18 0 -15 -8 -22 -30 -26 -23 -5 -30 -12 -30 -31 0 -22 3
-23 36 -17 33 6 53 -4 54 -27 0 -8 -130 -32 -137 -26 -5 6 -42 170 -43 193 0
7 21 16 48 22 76 16 92 14 92 -7z m411 -20 c29 -29 37 -51 20 -51 -5 0 -16 -3
-25 -6 -10 -4 -16 -1 -16 9 0 19 -16 31 -30 22 -7 -4 4 -23 25 -46 37 -41 42
-58 24 -90 -25 -47 -115 -44 -137 5 -17 38 19 53 44 19 10 -15 15 -16 26 -5
10 10 7 18 -20 43 -45 42 -44 90 3 117 32 18 55 14 86 -17z m-601 -107 c43
-93 44 -96 25 -110 -29 -22 -39 -17 -61 26 -17 37 -21 39 -38 27 -17 -13 -17
-15 -2 -45 9 -17 16 -35 16 -40 0 -9 -50 -36 -55 -30 -6 6 -85 181 -85 188 0
6 44 30 55 30 2 0 9 -16 15 -35 13 -39 13 -39 41 -25 18 10 18 13 4 40 -8 16
-15 33 -15 38 0 8 36 30 50 31 3 0 25 -43 50 -95z m850 6 c0 -3 -4 -11 -9 -18
-7 -12 -14 -11 -41 3 -27 14 -34 15 -41 3 -13 -19 -12 -21 23 -41 28 -16 30
-20 16 -33 -12 -13 -19 -13 -42 -3 -23 11 -29 10 -37 -2 -14 -22 -11 -27 21
-44 32 -17 38 -32 16 -41 -11 -4 -106 35 -124 51 -2 1 18 46 44 98 l48 95 63
-31 c35 -17 63 -34 63 -37z m-1110 -90 c0 -15 -7 -20 -29 -20 -34 0 -62 -31
-54 -61 6 -22 58 -69 77 -69 21 0 48 37 44 62 -2 17 2 24 20 26 20 3 22 -1 22
-36 0 -103 -139 -139 -198 -52 -32 48 -25 104 18 143 38 34 100 39 100 7z
m1270 -3 c0 -3 -66 -200 -75 -226 -4 -11 -11 -9 -30 9 -18 17 -23 29 -19 49 7
36 -16 57 -46 41 -16 -8 -25 -8 -41 4 -20 14 -16 17 83 69 92 48 128 64 128
54z m-491 -47 c560 -156 757 -846 364 -1271 -217 -233 -540 -309 -843 -195
-232 86 -401 274 -472 522 -31 111 -31 285 1 398 84 300 329 518 636 567 76
12 231 2 314 -21z m-1066 -409 c72 -28 92 -118 38 -172 -89 -89 -226 31 -155
136 28 39 72 53 117 36z m1808 -7 c37 -19 63 -74 54 -115 -10 -43 -58 -79
-107 -79 -83 0 -129 98 -77 164 36 46 80 56 130 30z m-1772 -483 c42 -37 55
-81 33 -113 -9 -12 -16 -24 -14 -25 18 -20 -39 -51 -92 -51 -81 0 -131 95 -86
166 11 18 24 31 29 28 5 -3 11 1 15 9 10 27 78 19 115 -14z m1777 14 c4 -8 9
-13 13 -11 12 8 30 -9 44 -43 17 -39 5 -86 -32 -125 -26 -28 -92 -32 -129 -8
-53 34 -68 147 -21 159 10 3 19 11 19 18 0 17 16 23 63 24 25 1 40 -4 43 -14z
m-1579 -487 c23 -22 31 -48 14 -48 -6 0 -13 5 -16 10 -3 6 -11 10 -17 10 -7 0
-6 -5 2 -15 16 -20 3 -40 -16 -24 -11 9 -18 8 -32 -4 -14 -13 -21 -14 -30 -5
-8 8 -1 22 26 54 20 24 39 43 41 44 3 0 15 -10 28 -22z m1324 -5 c36 -34 36
-53 4 -83 l-26 -24 -41 42 -42 41 24 26 c30 32 45 32 81 -2z m-98 -82 c33 -47
34 -65 5 -85 -33 -23 -43 -20 -79 25 -28 36 -30 42 -17 55 13 13 18 11 39 -20
13 -20 30 -36 37 -36 18 0 15 12 -13 50 -22 30 -25 50 -7 50 4 0 19 -18 35
-39z m-1121 2 c40 -36 9 -105 -48 -105 -51 0 -72 64 -34 102 24 24 57 26 82 3z
m137 -95 c13 -23 13 -29 -3 -52 -21 -33 -38 -40 -71 -32 -51 13 -52 96 -3 115
31 11 60 -1 77 -31z m848 7 c12 -26 22 -34 37 -33 32 4 31 -13 -2 -34 l-30
-19 -30 53 c-17 29 -28 56 -26 60 12 18 35 6 51 -27z m-75 -20 c-1 -5 -11 -10
-21 -10 -27 0 -34 -10 -27 -40 7 -28 43 -35 52 -10 9 22 24 18 24 -5 0 -41
-78 -55 -104 -18 -20 28 -20 48 0 76 12 17 24 22 47 20 18 -2 31 -7 29 -13z
m-684 -6 c20 -7 29 -15 25 -25 -3 -8 -9 -12 -13 -9 -5 3 -14 -12 -20 -32 -15
-47 -23 -55 -43 -48 -14 6 -14 10 0 42 8 20 12 46 9 59 -7 27 -2 29 42 13z
m130 -42 c14 -11 10 -83 -6 -99 -5 -5 -25 -8 -43 -6 -32 3 -34 5 -33 39 2 70
11 87 41 81 16 -2 34 -9 41 -15z m116 -61 c20 -63 20 -66 -4 -66 -11 0 -20 7
-20 15 0 20 -20 19 -36 -2 -27 -38 -26 0 1 57 16 33 32 57 36 53 3 -5 14 -30
23 -57z m194 39 c8 -55 13 -65 33 -65 35 0 15 -25 -23 -28 -34 -3 -35 -1 -41
35 -11 66 -9 85 10 81 10 -2 19 -12 21 -23z m-108 -30 c0 -41 2 -45 25 -45 16
0 25 -6 25 -15 0 -11 -11 -15 -40 -15 -35 0 -40 3 -40 23 0 12 -3 39 -6 60 -6
33 -4 37 15 37 18 0 21 -6 21 -45z"/>
<path d="M1211 1713 c-6 -12 -11 -30 -12 -40 0 -16 -1 -16 -8 2 -6 16 -9 17
-17 4 -5 -8 -21 -20 -36 -26 -32 -14 -35 -25 -11 -44 15 -12 16 -12 9 6 -4 11
-4 16 1 12 4 -5 8 -21 9 -37 2 -39 -26 -64 -65 -58 -20 3 -32 0 -36 -9 -3 -8
0 -11 6 -8 6 4 9 1 8 -6 -1 -8 1 -22 5 -31 5 -11 1 -30 -11 -50 -17 -29 -24
-33 -59 -32 -37 1 -135 40 -142 57 -2 4 -7 5 -11 3 -4 -3 -8 6 -9 19 -1 14 7
29 22 38 31 21 58 80 50 112 -3 14 -20 36 -36 50 -40 34 -84 32 -127 -5 -48
-41 -49 -87 -2 -129 18 -16 30 -34 27 -40 -4 -5 4 -11 16 -14 24 -4 19 -7 -27
-22 -12 -4 -15 -17 -12 -62 3 -31 9 -59 14 -60 6 -2 19 -11 29 -19 10 -9 13
-13 7 -9 -10 5 -13 -18 -13 -98 0 -57 -3 -107 -7 -111 -5 -4 -8 -12 -8 -17 0
-5 -4 -8 -8 -6 -5 1 -13 -6 -19 -16 -7 -14 -6 -22 9 -33 10 -9 11 -12 3 -8 -8
4 -4 -4 10 -17 13 -13 29 -23 34 -21 5 2 5 -3 -1 -10 -13 -16 -22 -218 -10
-218 5 0 4 -6 -2 -14 -9 -11 -10 -20 -1 -35 12 -23 30 -27 47 -10 13 13 6 239
-8 253 -12 13 -12 36 1 36 5 0 7 -7 4 -15 -9 -22 4 -18 38 10 31 26 67 32 85
14 16 -16 45 -4 102 41 l49 39 21 -31 20 -32 -41 -20 c-22 -12 -60 -43 -84
-70 -50 -55 -58 -95 -23 -120 19 -13 21 -19 12 -53 -6 -21 -14 -47 -19 -58 -7
-18 -6 -19 12 -6 18 14 18 14 2 -4 -14 -15 -30 -18 -85 -16 -50 1 -64 -1 -53
-9 12 -9 10 -10 -9 -8 -19 2 -24 -2 -27 -25 -1 -15 2 -27 7 -27 5 0 9 -5 9
-11 0 -5 -4 -7 -10 -4 -5 3 -10 1 -10 -5 0 -12 5 -11 68 6 13 4 22 3 21 -2 -1
-5 -1 -17 0 -26 1 -14 5 -13 26 7 30 31 43 31 55 3 5 -13 9 -17 9 -11 1 7 18
21 38 30 29 14 41 28 51 57 16 49 29 65 62 78 l25 10 -26 13 c-15 8 -29 21
-32 29 -8 20 17 51 53 66 29 12 32 11 73 -34 25 -26 52 -46 64 -46 26 0 39
-44 24 -83 -9 -23 -17 -27 -48 -27 -30 0 -35 -3 -23 -11 12 -9 11 -10 -6 -6
-25 5 -46 -26 -40 -58 3 -11 5 -24 5 -28 1 -5 8 -1 17 7 16 17 69 23 59 7 -10
-17 12 -21 25 -6 17 21 50 19 51 -2 0 -12 2 -13 6 -5 3 7 15 17 28 22 20 7 23
17 27 84 4 54 12 89 30 124 l25 49 -22 -5 c-32 -6 -83 23 -105 61 -26 43 -25
51 5 31 63 -41 160 -35 191 12 22 33 13 87 -26 142 -28 39 -38 80 -24 95 14
14 63 -16 74 -46 l11 -32 20 24 c27 32 25 86 -3 105 -29 21 -87 20 -117 -1
-49 -34 -14 12 50 66 72 61 88 84 89 124 0 37 -49 87 -85 87 -33 0 -81 -24
-89 -45 -10 -26 -7 -27 16 -11 12 9 32 16 43 16 15 0 17 -2 6 -9 -9 -6 -10
-11 -2 -15 27 -17 10 -56 -54 -118 -57 -57 -65 -69 -65 -102 0 -42 8 -60 56
-123 58 -76 40 -152 -34 -138 -26 5 -32 3 -26 -7 4 -7 -4 -2 -18 12 -36 36
-47 61 -63 146 -8 41 -19 84 -25 94 -18 34 -12 60 13 60 31 0 57 29 57 63 0
24 -3 27 -25 21 -50 -13 -83 47 -51 92 13 17 18 18 45 7 30 -11 31 -11 31 18
0 21 -5 29 -18 29 -27 0 -33 10 -21 32 8 14 18 19 35 15 19 -3 31 3 51 29 l26
34 -26 24 c-14 13 -47 29 -73 35 -60 15 -93 35 -103 64 l-8 21 -12 -21z m-484
-85 c-3 -8 -6 -5 -6 6 -1 11 2 17 5 13 3 -3 4 -12 1 -19z m120 -3 c5 -4 2 -5
-4 -1 -9 5 -13 0 -13 -13 0 -21 -32 -46 -44 -34 -7 7 -8 47 -1 54 7 8 54 3 62
-6z m453 -26 c0 -8 5 -8 15 1 9 8 15 8 15 2 0 -13 -36 -26 -50 -17 -15 9 -12
25 5 25 8 0 15 -5 15 -11z m-573 -31 c-3 -8 -6 -5 -6 6 -1 11 2 17 5 13 3 -3
4 -12 1 -19z m111 -4 c-12 -12 -17 -13 -23 -3 -5 8 -4 10 4 5 6 -4 14 0 17 9
4 9 9 13 12 10 3 -3 -1 -13 -10 -21z m253 -131 c-12 -20 -14 -14 -5 12 4 9 9
14 11 11 3 -2 0 -13 -6 -23z m-321 7 c-12 -8 -12 -10 -1 -10 8 0 12 -3 8 -6
-9 -9 -28 6 -22 17 4 5 12 9 18 9 7 0 6 -4 -3 -10z m0 -41 c-11 -8 -8 -9 13
-4 19 4 26 2 22 -5 -8 -12 -42 -13 -49 -1 -7 10 3 21 18 21 6 0 4 -5 -4 -11z
m298 -14 c-6 -14 -13 -23 -15 -21 -5 5 15 46 22 46 3 0 -1 -11 -7 -25z m-73
-15 c10 -11 16 -20 13 -20 -3 0 -13 9 -23 20 -10 11 -16 20 -13 20 3 0 13 -9
23 -20z m-200 -9 c3 -6 -3 -9 -14 -8 -11 0 -17 5 -15 9 7 11 22 10 29 -1z
m704 -59 c-35 -37 -66 -66 -68 -64 -5 3 120 132 128 132 2 0 -24 -30 -60 -68z
m-453 0 c-17 -16 -18 -16 -5 5 7 12 15 20 18 17 3 -2 -3 -12 -13 -22z m-138
-8 c20 -13 33 -52 13 -40 -5 3 -12 -1 -15 -9 -12 -32 56 -31 89 1 14 15 17 15
28 1 7 -8 19 -17 27 -20 9 -3 5 -6 -10 -6 -14 -1 -63 -26 -110 -56 -51 -33
-95 -55 -110 -54 -17 1 -19 3 -7 6 15 4 17 18 17 105 l0 100 28 -7 c15 -3 37
-13 50 -21z m519 -111 c-3 -10 -5 -4 -5 12 0 17 2 24 5 18 2 -7 2 -21 0 -30z
m136 -10 c-7 -2 -19 -2 -25 0 -7 3 -2 5 12 5 14 0 19 -2 13 -5z m-102 -60 c13
-16 12 -17 -3 -4 -17 13 -22 21 -14 21 2 0 10 -8 17 -17z m-613 -20 c-10 -2
-28 -2 -40 0 -13 2 -5 4 17 4 22 1 32 -1 23 -4z m373 -20 c13 -16 12 -17 -3
-4 -16 12 -18 11 -18 -7 0 -11 -8 -26 -17 -33 -15 -11 -16 -11 -5 1 6 8 12 24
12 37 0 27 12 30 31 6z m280 -10 c13 -16 12 -17 -3 -4 -17 13 -22 21 -14 21 2
0 10 -8 17 -17z m29 -78 c0 -38 -33 -65 -77 -64 l-38 2 43 7 c47 7 62 21 62
58 0 12 2 22 5 22 3 0 5 -11 5 -25z m-420 -35 c-8 -5 -19 -10 -25 -10 -5 0 -3
5 5 10 8 5 20 10 25 10 6 0 3 -5 -5 -10z m-72 -42 c-18 -18 -35 -32 -38 -30
-5 4 57 62 66 62 3 0 -9 -15 -28 -32z m-17 -95 c13 -16 12 -17 -3 -4 -10 7
-18 15 -18 17 0 8 8 3 21 -13z m16 -55 c-3 -7 -5 -2 -5 12 0 14 2 19 5 13 2
-7 2 -19 0 -25z m330 -35 c-3 -10 -5 -4 -5 12 0 17 2 24 5 18 2 -7 2 -21 0
-30z m-346 -6 c-10 -9 -11 -8 -5 6 3 10 9 15 12 12 3 -3 0 -11 -7 -18z"/>
<path d="M1390 1508 c0 -13 41 -29 59 -23 39 12 30 30 -15 30 -24 0 -44 -3
-44 -7z"/>
<path d="M213 1444 c9 -3 17 -9 17 -14 0 -5 13 -8 29 -7 39 3 26 13 -24 20
-22 3 -32 3 -22 1z"/>
<path d="M166 1422 c-2 -4 18 -20 45 -35 46 -27 55 -25 50 6 -1 4 10 5 24 1
17 -4 25 -2 25 6 0 9 -11 11 -33 7 -20 -3 -40 0 -52 9 -21 15 -51 19 -59 6z"/>
<path d="M149 1398 c-16 -49 2 -80 52 -93 47 -12 41 13 -7 35 -26 11 -44 23
-41 27 4 3 12 1 19 -4 7 -6 28 -15 46 -21 26 -9 33 -9 29 1 -5 17 -94 67 -98
55z"/>
<path d="M278 1375 c-17 -28 -36 -85 -28 -85 14 0 42 58 38 78 -2 9 -6 13 -10
7z"/>
<path d="M298 1353 c-3 -16 -9 -37 -13 -48 -7 -18 -6 -19 8 -5 20 18 34 80 19
80 -5 0 -12 -12 -14 -27z"/>
<path d="M217 1279 c7 -7 15 -10 18 -7 3 3 -2 9 -12 12 -14 6 -15 5 -6 -5z"/>
<path d="M2000 1443 c-38 -7 -43 -18 -9 -20 16 -1 29 2 29 7 0 5 10 11 23 13
18 3 18 4 2 4 -11 0 -31 -2 -45 -4z"/>
<path d="M2013 1406 c-20 -14 -29 -26 -24 -35 6 -9 19 -5 54 16 26 15 47 31
47 36 0 15 -46 5 -77 -17z"/>
<path d="M1940 1400 c0 -13 20 -13 40 0 12 8 9 10 -12 10 -16 0 -28 -4 -28
-10z"/>
<path d="M2040 1373 c-33 -20 -40 -28 -27 -31 21 -4 89 28 95 46 6 19 -20 14
-68 -15z"/>
<path d="M1930 1365 c0 -22 29 -75 41 -75 5 0 3 13 -6 30 -8 16 -15 36 -15 45
0 8 -4 15 -10 15 -5 0 -10 -7 -10 -15z"/>
<path d="M1960 1370 c0 -20 27 -75 44 -89 13 -11 19 -12 29 -2 9 10 8 11 -4 6
-13 -5 -21 5 -35 44 -16 46 -34 67 -34 41z"/>
<path d="M2052 1339 c-42 -20 -48 -39 -12 -39 10 0 21 -5 23 -10 3 -6 4 -5 3
2 -1 7 8 21 21 31 22 18 31 38 16 36 -5 0 -27 -10 -51 -20z"/>
<path d="M204 978 c-7 -12 5 -48 17 -48 5 0 9 6 9 13 0 8 3 8 9 -2 8 -12 12
-12 25 -2 9 8 16 19 16 26 0 14 -68 26 -76 13z"/>
<path d="M145 928 c-15 -37 -12 -48 15 -48 23 0 35 16 18 23 -8 3 -6 6 5 6 20
1 21 5 7 32 -15 28 -29 24 -45 -13z"/>
<path d="M282 938 c-16 -16 -15 -35 1 -41 9 -4 9 -6 -1 -6 -24 -2 -1 -21 24
-21 24 0 25 3 19 33 -11 51 -20 58 -43 35z"/>
<path d="M217 904 c-14 -15 -6 -34 14 -34 14 0 19 5 17 17 -3 18 -20 27 -31
17z"/>
<path d="M156 857 c-16 -12 -15 -14 8 -36 29 -27 56 -22 56 10 0 15 -4 19 -16
15 -12 -4 -15 -2 -10 9 7 18 -14 20 -38 2z"/>
<path d="M264 844 c5 -13 4 -14 -7 -6 -23 19 -36 -8 -18 -36 6 -10 14 -9 39 5
35 20 41 37 16 47 -27 10 -36 7 -30 -10z"/>
<path d="M2013 982 c-37 -4 -40 -10 -17 -38 11 -14 17 -16 21 -6 4 10 8 10 19
1 11 -9 15 -7 20 7 4 11 9 22 10 25 6 10 -17 15 -53 11z"/>
<path d="M2070 941 c-13 -26 -13 -31 5 -31 9 0 12 -6 9 -15 -5 -11 1 -15 20
-15 30 0 32 9 11 50 -18 35 -30 38 -45 11z"/>
<path d="M1946 938 c-18 -57 -17 -68 8 -68 25 0 48 20 24 20 -8 0 -6 5 5 11
18 10 18 12 1 30 -20 22 -33 24 -38 7z"/>
<path d="M2017 903 c-14 -13 -6 -33 13 -33 13 0 20 7 20 20 0 19 -20 27 -33
13z"/>
<path d="M2070 855 c0 -9 -6 -12 -17 -8 -13 5 -15 2 -10 -11 4 -10 7 -22 7
-27 0 -17 27 -9 50 17 21 21 22 27 10 34 -22 14 -40 12 -40 -5z"/>
<path d="M1961 846 c-9 -11 -6 -18 19 -36 35 -25 50 -20 50 17 0 21 -2 24 -15
13 -12 -10 -15 -10 -15 4 0 20 -23 21 -39 2z"/>
<path d="M1800 444 c0 -8 5 -12 10 -9 6 4 8 11 5 16 -9 14 -15 11 -15 -7z"/>
<path d="M545 380 c-23 -25 -13 -55 14 -41 21 12 34 38 25 52 -8 14 -19 11
-39 -11z"/>
<path d="M677 312 c-21 -23 -22 -52 -2 -52 20 0 42 47 28 61 -6 6 -15 3 -26
-9z"/>
<path d="M910 184 c0 -8 5 -12 10 -9 6 4 8 11 5 16 -9 14 -15 11 -15 -7z"/>
</g>
</svg>
