<?xml version="1.0" standalone="no"?>
<!DOCTYPE svg PUBLIC "-//W3C//DTD SVG 20010904//EN"
 "http://www.w3.org/TR/2001/REC-SVG-20010904/DTD/svg10.dtd">
<svg version="1.0" xmlns="http://www.w3.org/2000/svg"
 width="197.000000pt" height="225.000000pt" viewBox="0 0 197.000000 225.000000"
 preserveAspectRatio="xMidYMid meet">

<g transform="translate(0.000000,225.000000) scale(0.100000,-0.100000)"
fill="#000000" stroke="none">
<path d="M902 2229 c-259 -33 -376 -197 -223 -310 29 -21 31 -27 31 -84 l0
-61 -73 0 c-64 1 -79 -2 -116 -27 -48 -32 -45 -33 -81 35 -29 54 -52 64 -106
43 -31 -12 -63 -38 -106 -85 -66 -74 -112 -100 -178 -100 -22 0 -40 -2 -40 -5
0 -3 38 -82 85 -175 95 -189 88 -183 179 -156 27 8 64 25 84 39 21 13 52 29
70 35 l32 11 0 -453 c0 -418 1 -455 18 -475 21 -25 506 -215 530 -208 44 13
488 189 499 199 10 8 13 106 13 464 0 290 4 455 10 459 5 3 21 0 34 -7 102
-57 134 -70 176 -75 l49 -6 85 172 c47 94 86 173 86 176 0 3 -17 5 -38 5 -73
0 -104 17 -182 99 -115 120 -171 128 -221 28 -12 -23 -23 -43 -24 -45 -2 -2
-28 11 -60 29 -51 29 -62 31 -116 26 l-59 -5 0 59 c0 58 1 60 50 107 46 44 50
52 50 95 0 38 -6 53 -31 82 -18 20 -50 47 -73 60 -80 46 -235 70 -354 54z
m209 -33 c144 -31 234 -106 215 -181 -7 -27 -53 -85 -68 -85 -5 0 0 12 11 26
32 41 28 86 -13 122 -58 50 -124 67 -266 67 -142 0 -215 -17 -268 -62 -45 -39
-51 -80 -17 -121 27 -32 24 -42 -5 -19 -60 47 -65 110 -14 167 75 82 262 120
425 86z m-261 -124 c-14 -9 -41 -32 -61 -49 -42 -38 -49 -40 -49 -15 0 26 31
51 82 67 56 18 58 17 28 -3z m343 -14 c42 -21 56 -43 38 -61 -8 -8 -19 -3 -43
20 -18 17 -49 41 -68 53 l-35 21 35 -6 c19 -4 52 -16 73 -27z m-258 -28 c24
-16 46 -30 50 -30 4 0 27 14 52 31 44 30 47 31 72 16 23 -14 26 -23 29 -80 l3
-63 49 -30 c55 -32 60 -50 36 -129 -11 -36 -15 -40 -46 -41 -86 -1 -89 -2
-120 -51 -18 -28 -28 -54 -24 -65 5 -16 -1 -18 -51 -18 -50 0 -56 2 -51 18 4
11 -6 37 -23 64 -25 40 -34 46 -73 52 -25 4 -51 4 -59 1 -19 -7 -39 33 -46 95
l-5 45 51 28 51 28 0 64 c0 60 2 65 28 79 15 8 28 15 30 16 2 0 23 -13 47 -30z
m-585 -279 l19 -39 -45 -37 c-25 -21 -47 -36 -48 -34 -2 2 -11 19 -20 37 -19
37 -12 58 30 91 36 28 41 27 64 -18z m1344 1 l37 -39 -17 -36 c-10 -21 -20
-37 -23 -37 -3 0 -26 17 -49 38 l-44 38 18 37 c10 20 23 37 29 37 6 0 28 -17
49 -38z m-1060 -14 c15 -71 26 -192 19 -199 -5 -5 -24 -10 -43 -11 l-35 -3
-31 90 c-18 50 -29 94 -27 99 7 10 83 45 100 46 7 0 15 -10 17 -22z m789 -5
c15 -7 27 -19 27 -26 0 -7 -13 -51 -29 -97 l-28 -85 -34 3 c-19 1 -38 7 -43
12 -8 8 10 195 21 213 5 9 48 -1 86 -20z m-993 -58 c-28 -29 -36 -31 -44 -8
-4 10 3 27 21 45 27 28 28 29 37 8 7 -16 4 -26 -14 -45z m1137 25 c15 -18 19
-30 13 -40 -7 -12 -14 -10 -39 14 -25 24 -28 32 -20 49 6 10 14 15 18 11 3 -5
16 -20 28 -34z m-717 -181 c0 -31 -3 -58 -6 -61 -3 -4 -25 6 -49 20 l-44 27
-1 78 0 78 50 -43 c49 -42 50 -44 50 -99z m370 66 l0 -75 -47 -30 -48 -29 -3
60 -3 60 48 44 c26 24 49 44 51 45 1 0 2 -34 2 -75z m-997 -100 c60 -122 70
-147 57 -155 -22 -14 -28 -12 -35 10 -5 15 -15 20 -41 20 -23 0 -37 6 -41 17
-4 9 -2 18 3 20 25 9 34 21 28 37 -5 13 -14 16 -35 11 -22 -5 -30 -2 -39 14
-9 18 -7 23 15 31 35 13 26 35 -14 36 -54 0 -66 53 -13 54 7 0 10 5 7 10 -10
16 2 40 20 40 10 0 41 -53 88 -145z m1630 118 c-2 -15 5 -23 22 -27 22 -6 23
-9 14 -30 -9 -18 -19 -23 -42 -22 -35 1 -49 -23 -18 -31 22 -6 26 -19 12 -41
-5 -8 -17 -11 -34 -7 -19 5 -28 2 -37 -14 -8 -16 -8 -21 2 -21 23 0 39 -16 32
-33 -4 -11 -17 -17 -36 -17 -18 0 -37 -8 -46 -20 -12 -14 -21 -17 -32 -10 -13
8 -3 33 58 155 56 113 76 146 90 143 10 -2 16 -12 15 -25z m-1406 -52 c48
-107 48 -106 10 -130 -19 -12 -39 -21 -45 -21 -9 0 -97 171 -90 174 2 1 21 11
43 23 22 12 42 22 45 22 3 1 19 -30 37 -68z m1159 44 l41 -19 -40 -88 c-44
-96 -54 -102 -102 -64 l-29 24 38 86 c22 48 42 85 45 83 3 -2 24 -12 47 -22z
m-586 -130 l0 -75 -35 0 -35 0 0 75 0 75 35 0 35 0 0 -75z m-90 -88 l32 -14
-35 -21 c-19 -11 -50 -20 -68 -19 -21 0 -50 -10 -74 -26 -65 -42 -75 -55 -75
-92 0 -19 -5 -45 -11 -59 -17 -37 -5 -67 44 -108 60 -50 84 -55 128 -25 26 18
41 22 53 15 20 -11 21 -34 1 -42 -8 -3 -15 -12 -15 -19 0 -28 160 -32 177 -4
3 5 -1 15 -10 22 -25 18 -21 33 14 50 28 15 32 15 48 1 27 -24 65 -19 115 15
42 28 51 43 47 76 -1 7 5 23 14 37 13 19 14 28 4 50 -7 14 -16 26 -21 26 -5 0
-16 16 -24 35 -11 28 -26 41 -72 61 -54 25 -59 25 -98 12 -37 -13 -45 -13 -70
0 l-27 14 32 14 c25 11 89 14 253 14 l219 0 -3 -297 -3 -298 -26 -12 c-19 -9
-34 -10 -56 -3 -21 8 -38 8 -58 0 -20 -7 -37 -7 -60 0 -22 7 -41 7 -58 1 -17
-7 -36 -7 -55 0 -19 6 -37 6 -55 0 -18 -7 -36 -7 -53 0 -18 6 -37 6 -59 -1
-22 -7 -40 -7 -61 0 -21 7 -39 8 -57 1 -18 -7 -36 -7 -54 0 -18 7 -36 6 -57
-1 -21 -7 -39 -7 -61 0 -22 7 -41 7 -58 1 -17 -7 -36 -7 -55 0 -19 6 -37 6
-55 0 -18 -7 -36 -7 -56 0 l-30 11 -1 299 0 299 209 0 c152 0 217 -4 241 -13z
m110 -76 c24 -19 25 -19 61 2 l36 21 49 -25 c29 -15 50 -33 52 -45 2 -10 15
-28 29 -40 l26 -20 -24 -23 c-20 -19 -22 -24 -11 -42 8 -12 12 -22 10 -23 -2
0 -17 -11 -35 -24 -18 -12 -40 -22 -50 -22 -24 1 -63 34 -63 54 0 12 -7 14
-30 10 -16 -4 -30 -3 -30 2 0 5 -36 9 -80 9 l-80 0 0 -32 c0 -18 -5 -33 -11
-33 -6 0 -22 -9 -36 -20 -14 -11 -29 -20 -32 -20 -4 0 -27 18 -51 40 l-45 41
18 30 c10 19 15 40 11 55 -7 29 10 54 38 54 11 0 28 10 37 21 15 19 21 20 40
10 19 -10 26 -8 52 13 37 31 84 34 119 7z m-93 -233 c-3 -8 -6 -5 -6 6 -1 11
2 17 5 13 3 -3 4 -12 1 -19z m123 2 c0 -5 -4 -10 -10 -10 -5 0 -10 5 -10 10 0
6 5 10 10 10 6 0 10 -4 10 -10z m-108 -357 c13 -12 18 -30 18 -67 -1 -45 -2
-49 -14 -33 -19 24 -29 21 -15 -4 11 -21 10 -22 -22 -15 -39 8 -79 42 -79 68
0 26 44 68 71 68 12 0 31 -7 41 -17z m143 -8 c14 -13 25 -33 25 -43 0 -26 -40
-60 -79 -68 -32 -7 -33 -6 -22 15 8 14 8 21 1 21 -5 0 -10 -4 -10 -10 0 -5 -4
-10 -10 -10 -16 0 -12 73 6 98 20 29 59 28 89 -3z m-171 -128 c18 -13 18 -14
0 -22 -17 -7 -17 -8 5 -14 l24 -7 -32 -37 c-43 -48 -83 -51 -106 -7 -18 35
-19 72 -3 88 16 16 90 15 112 -1z m81 -12 c0 -22 -31 -33 -47 -17 -17 17 -1
44 24 40 15 -2 23 -10 23 -23z m143 13 c17 -17 15 -64 -4 -93 -25 -38 -65 -33
-105 12 l-32 37 24 7 c22 6 22 7 5 14 -18 8 -18 9 0 22 22 16 96 17 112 1z
m-167 -88 c5 0 9 10 9 21 0 29 22 10 45 -38 13 -27 15 -41 6 -59 -20 -44 -102
-44 -122 0 -11 23 3 66 35 105 9 12 12 11 14 -7 2 -12 8 -22 13 -22z"/>
<path d="M932 1903 c-29 -20 -52 -43 -51 -52 0 -9 8 -38 17 -66 l17 -50 71 -3
72 -3 17 66 18 67 -29 23 c-72 58 -76 58 -132 18z"/>
<path d="M958 403 c7 -3 16 -2 19 1 4 3 -2 6 -13 5 -11 0 -14 -3 -6 -6z"/>
<path d="M1008 403 c7 -3 16 -2 19 1 4 3 -2 6 -13 5 -11 0 -14 -3 -6 -6z"/>
<path d="M1663 603 c-11 -16 -43 -46 -71 -68 -28 -22 -53 -50 -56 -62 -4 -13
-16 -29 -29 -37 -12 -8 -133 -58 -268 -110 l-245 -95 -255 99 c-173 68 -259
106 -269 121 -16 23 -157 162 -169 167 -4 1 -50 -48 -101 -110 l-94 -112 65
-59 c225 -206 513 -317 818 -317 204 0 368 38 547 127 99 48 234 145 301 215
l41 43 -91 112 c-51 61 -95 112 -98 112 -3 1 -14 -11 -26 -26z m-1308 -151 c3
-8 -1 -22 -8 -30 -13 -12 -14 -10 -10 11 6 29 -10 43 -27 23 -8 -11 -8 -20 -1
-35 25 -46 -34 -101 -70 -65 -16 17 -16 21 -3 39 15 19 15 19 12 -10 -2 -24 1
-30 17 -30 21 0 25 23 10 57 -4 12 1 25 19 42 26 27 50 26 61 -2z m1326 12
c12 -15 11 -16 -8 -10 -35 11 -45 -1 -29 -32 21 -40 63 -75 80 -69 9 4 16 2
16 -2 0 -15 -30 -21 -50 -11 -28 15 -70 69 -70 90 0 10 10 26 22 34 27 19 23
19 39 0z m-1246 -70 c9 -9 14 -23 11 -31 -3 -8 -6 -18 -6 -23 0 -21 -53 -70
-76 -70 -57 0 -43 92 21 128 27 15 31 15 50 -4z m1158 3 c4 -10 -2 -13 -19 -9
-27 5 -29 0 -13 -29 6 -11 17 -18 24 -15 7 2 19 -2 26 -10 10 -12 9 -13 -5 -8
-23 9 -20 -12 5 -37 16 -16 18 -23 9 -29 -9 -5 -26 12 -54 54 l-42 61 26 17
c30 21 36 22 43 5z m-1084 -51 c7 -8 8 -16 4 -18 -14 -5 -53 -78 -53 -99 0
-22 19 -25 40 -6 12 10 12 9 0 -6 -18 -24 -54 -18 -58 10 -2 12 8 44 22 71 14
27 22 52 19 56 -4 3 -2 6 4 6 6 0 16 -6 22 -14z m61 -31 c0 -1 -7 -8 -15 -15
-13 -10 -15 -9 -15 8 0 15 5 20 15 16 8 -4 15 -7 15 -9z m880 6 c0 -5 3 -18 6
-28 6 -16 5 -16 -9 2 -19 23 -21 35 -7 35 6 0 10 -4 10 -9z m-815 -33 c14 -6
25 -18 25 -27 0 -12 -3 -11 -14 4 -12 16 -15 12 -37 -48 -22 -63 -39 -81 -54
-57 -3 6 -2 10 3 10 9 0 52 93 52 112 0 6 -7 8 -15 4 -8 -3 -15 -1 -15 4 0 13
24 13 55 -2z m791 -13 c18 -14 38 -25 44 -25 10 0 34 -49 27 -56 -1 -2 -22 13
-46 32 -24 19 -46 32 -49 29 -3 -2 -11 3 -18 13 -30 39 -6 43 42 7z m-717 -42
c-13 -35 -11 -43 11 -43 18 0 26 20 21 53 0 4 6 7 15 7 12 0 15 -6 10 -22 -4
-13 -12 -47 -18 -75 -7 -29 -18 -53 -24 -53 -16 0 -27 17 -14 22 17 6 16 52
-1 56 -17 3 -35 -40 -24 -58 7 -12 3 -12 -19 -4 -11 4 -13 11 -7 22 5 10 14
42 21 74 9 39 17 55 26 51 9 -3 10 -11 3 -30z m641 10 c26 -34 25 -100 -3
-117 -35 -21 -87 63 -73 119 9 34 48 33 76 -2z m-111 -14 c4 -12 2 -12 -12 0
-15 12 -17 11 -17 -6 0 -10 6 -42 13 -71 8 -28 12 -54 9 -57 -9 -9 -33 -5 -27
4 5 9 -8 85 -21 121 -4 12 -7 12 -13 1 -6 -9 -11 -10 -15 -2 -7 11 1 16 39 24
28 6 38 3 44 -14z m-376 -102 c4 -40 2 -47 -13 -47 -13 0 -16 6 -12 25 3 20 0
25 -17 25 -12 0 -20 4 -16 10 3 5 12 7 20 3 17 -6 21 17 6 32 -5 6 -5 20 1 35
l11 25 7 -30 c5 -16 10 -51 13 -78z m267 78 c12 -31 4 -52 -22 -61 -15 -4 -19
-13 -16 -37 2 -23 -1 -33 -14 -35 -12 -2 -15 2 -12 15 3 10 1 44 -4 75 -9 61
-7 66 36 67 15 1 26 -7 32 -24z m-172 -40 c9 -37 10 -61 3 -72 -8 -14 -11 -7
-17 35 -4 30 -10 48 -14 42 -4 -7 -9 0 -12 19 -3 24 -1 31 11 31 12 0 20 -17
29 -55z m57 -20 c0 -60 -3 -75 -15 -75 -12 0 -15 14 -14 68 2 84 2 82 17 82 8
0 12 -22 12 -75z m435 25 c0 -5 -7 -10 -16 -10 -8 0 -12 5 -9 10 3 6 10 10 16
10 5 0 9 -4 9 -10z m-651 -79 c-15 -5 -22 6 -14 19 6 9 10 9 16 -1 5 -8 4 -15
-2 -18z m136 -11 c3 -5 -3 -10 -15 -10 -12 0 -18 5 -15 10 3 6 10 10 15 10 5
0 12 -4 15 -10z"/>
<path d="M376 359 c-37 -44 -47 -79 -22 -79 17 0 62 51 71 81 14 42 -12 41
-49 -2z"/>
<path d="M1293 226 c11 -66 47 -117 60 -83 9 24 -26 112 -47 115 -17 4 -18 0
-13 -32z"/>
<path d="M1082 189 c2 -19 8 -33 13 -31 15 3 12 55 -3 60 -10 3 -13 -5 -10
-29z"/>
</g>
</svg>
