<?xml version="1.0" standalone="no"?>
<!DOCTYPE svg PUBLIC "-//W3C//DTD SVG 20010904//EN"
 "http://www.w3.org/TR/2001/REC-SVG-20010904/DTD/svg10.dtd">
<svg version="1.0" xmlns="http://www.w3.org/2000/svg"
 width="225.000000pt" height="225.000000pt" viewBox="0 0 225.000000 225.000000"
 preserveAspectRatio="xMidYMid meet">

<g transform="translate(0.000000,225.000000) scale(0.100000,-0.100000)"
fill="#000000" stroke="none">
<path d="M965 2234 c-499 -76 -876 -455 -949 -955 -20 -133 -20 -175 0 -308
74 -502 453 -881 955 -955 133 -20 175 -20 308 0 502 74 881 453 955 955 20
133 20 175 0 308 -74 504 -451 880 -956 955 -125 19 -192 19 -313 0z m273 -44
c745 -77 1183 -890 839 -1555 -270 -520 -900 -728 -1424 -470 -647 319 -801
1171 -306 1696 92 98 180 161 308 223 127 62 229 93 341 105 114 12 131 12
242 1z"/>
<path d="M936 2124 c-105 -20 -237 -70 -338 -130 -113 -67 -275 -229 -342
-342 -194 -327 -194 -728 0 -1054 64 -107 221 -267 326 -332 92 -57 223 -112
315 -132 38 -8 120 -17 183 -20 205 -10 395 37 572 142 113 67 275 229 342
342 194 326 194 728 0 1054 -34 57 -82 116 -154 188 -119 118 -216 182 -358
236 -164 61 -370 79 -546 48z m337 -61 c4 -2 12 -24 18 -49 6 -24 15 -44 19
-44 4 0 20 16 35 36 25 33 30 35 64 29 20 -4 38 -8 40 -10 2 -2 -24 -35 -58
-72 -42 -47 -65 -81 -73 -110 -9 -39 -12 -42 -37 -37 -38 9 -41 15 -32 55 6
28 2 54 -20 120 -15 46 -28 88 -28 92 -1 8 55 0 72 -10z m-135 -108 c29 -63
52 -120 52 -125 0 -6 -13 -10 -30 -10 -20 0 -35 8 -46 25 -25 38 -88 32 -104
-10 -10 -26 -70 -41 -70 -18 0 7 14 67 32 133 l31 120 42 0 41 0 52 -115z
m-307 34 c15 -15 20 -30 17 -55 -3 -28 -1 -34 14 -34 11 0 25 -14 35 -34 15
-32 15 -37 -1 -61 -19 -28 -136 -90 -147 -77 -13 13 -111 213 -107 217 11 11
135 64 151 65 9 0 26 -9 38 -21z m753 -30 c42 -22 76 -44 76 -47 0 -4 -7 -15
-15 -26 -13 -18 -15 -17 -59 7 -39 22 -47 23 -57 10 -14 -16 -11 -19 44 -49
30 -16 35 -35 13 -53 -11 -9 -22 -7 -50 9 -19 12 -40 19 -46 15 -21 -13 -9
-35 30 -55 41 -21 47 -33 30 -60 -8 -13 -21 -9 -85 25 -41 22 -75 41 -75 43 0
7 111 222 114 222 3 0 39 -18 80 -41z m207 -156 c47 -49 69 -83 69 -105 0 -28
-52 -79 -84 -82 -24 -3 -32 -10 -43 -42 -19 -55 -28 -59 -52 -25 -20 28 -21
31 -5 64 9 20 14 43 10 53 -6 15 -11 13 -39 -14 l-33 -32 -24 25 -24 26 84 84
c47 47 89 85 95 85 6 0 27 -17 46 -37z m-1281 -43 c12 -7 11 -13 -10 -34 -13
-15 -34 -26 -47 -26 -34 0 -51 -41 -31 -72 9 -13 27 -29 41 -37 47 -25 100 7
78 47 -6 10 -4 24 6 39 42 63 86 -24 48 -97 -46 -88 -148 -93 -218 -10 -35 40
-41 64 -27 105 23 70 111 117 160 85z m810 -29 c190 -61 352 -224 413 -416 31
-100 31 -280 0 -380 -62 -194 -224 -356 -418 -418 -56 -18 -94 -22 -190 -22
-96 0 -134 4 -190 22 -192 61 -356 223 -416 413 -30 92 -36 237 -15 332 52
233 227 416 460 479 94 25 261 21 356 -10z m648 -156 c17 -37 17 -37 -34 -116
-25 -40 -40 -69 -32 -66 126 50 117 48 128 27 5 -10 10 -25 10 -33 0 -16 -213
-102 -229 -93 -5 4 -12 19 -16 35 -5 23 2 41 40 95 26 36 44 66 41 66 -3 0
-31 -12 -62 -27 -55 -28 -56 -28 -70 -8 -8 11 -13 26 -12 33 2 11 194 108 219
111 3 1 11 -10 17 -24z m-1668 -45 c19 -10 19 -11 -1 -62 -16 -41 -17 -53 -7
-59 25 -16 33 -9 51 41 19 54 24 57 50 37 16 -11 17 -16 2 -56 -17 -50 -16
-51 28 -66 27 -9 32 -15 30 -39 -1 -16 -5 -31 -8 -34 -9 -10 -235 68 -235 81
0 22 55 167 63 167 5 0 17 -5 27 -10z m164 -652 c8 -22 5 -37 -17 -76 -15 -28
-27 -52 -27 -55 0 -3 27 -8 60 -12 51 -6 63 -11 80 -36 l21 -28 -103 -60 c-57
-34 -108 -61 -114 -61 -11 0 -40 47 -33 54 2 2 29 17 59 34 56 32 55 36 -14
46 -21 3 -41 8 -44 11 -3 3 4 26 17 51 12 26 20 48 18 50 -2 3 -24 -7 -48 -21
-56 -32 -73 -31 -88 1 -6 15 -10 28 -9 29 16 15 207 104 218 102 8 -1 19 -14
24 -29z m1460 -18 l106 -50 -13 -32 c-13 -32 -17 -33 -90 -44 -42 -5 -79 -13
-82 -16 -3 -3 19 -18 50 -34 59 -31 63 -38 39 -69 -15 -20 -17 -19 -120 35
-58 30 -107 58 -109 61 -2 3 4 19 15 36 17 29 23 31 102 38 l83 8 -62 28 c-35
16 -63 32 -63 37 1 23 14 52 25 52 7 0 60 -22 119 -50z m-224 -209 c8 -16 4
-24 -27 -49 -33 -26 -36 -32 -24 -46 13 -15 17 -14 46 14 35 34 47 37 65 15
11 -13 7 -22 -24 -54 -33 -34 -35 -39 -21 -51 14 -11 21 -8 55 25 39 38 40 38
60 20 21 -19 21 -19 -42 -82 -34 -35 -65 -63 -69 -63 -3 0 -43 41 -89 91 l-82
92 53 53 c56 57 82 66 99 35z m-1062 -33 l21 -23 -54 -65 c-59 -71 -63 -81
-39 -104 29 -29 51 -18 104 54 51 69 52 69 76 54 13 -9 24 -21 24 -27 0 -6
-25 -43 -55 -83 -76 -101 -122 -109 -197 -35 -55 56 -52 79 25 174 34 42 65
77 68 77 3 0 15 -10 27 -22z m60 -47 c11 -6 7 -13 -14 -30 -32 -25 -38 -23
-25 13 11 28 18 31 39 17z m870 -146 c28 -58 52 -109 52 -114 0 -7 -43 -31
-55 -31 -3 0 -14 18 -25 40 -11 22 -23 40 -26 40 -2 0 -20 -7 -39 -14 -32 -14
-34 -17 -25 -41 6 -15 15 -35 20 -45 8 -15 6 -21 -10 -30 -38 -20 -51 -7 -96
100 -24 57 -44 107 -44 111 0 9 51 30 60 24 5 -3 14 -21 20 -40 13 -40 10 -39
56 -20 l35 14 -21 40 -20 40 22 15 c12 9 27 16 33 16 6 0 34 -47 63 -105z
m-719 54 c28 -10 34 -19 53 -85 12 -41 25 -74 28 -74 3 0 12 26 20 58 14 55
16 57 45 54 16 -2 32 -5 34 -7 8 -9 -63 -245 -73 -244 -51 5 -59 14 -86 99
l-26 85 -23 -68 c-23 -69 -33 -77 -65 -54 -18 13 -17 19 20 130 21 65 39 117
39 117 1 0 16 -5 34 -11z m410 -75 c43 -36 42 -64 -3 -64 -21 0 -36 6 -40 15
-7 18 -47 20 -64 3 -16 -16 -16 -100 0 -116 20 -20 69 -15 75 8 8 30 73 29 73
-1 0 -11 -13 -34 -29 -50 -25 -25 -37 -29 -84 -29 -65 0 -100 23 -117 76 -13
40 -6 110 14 136 39 52 127 63 175 22z"/>
<path d="M1040 1966 c0 -8 -3 -21 -6 -30 -5 -12 0 -16 20 -16 30 0 30 0 14 35
-12 27 -28 33 -28 11z"/>
<path d="M743 1933 c-15 -6 -17 -29 -3 -38 14 -9 50 13 50 30 0 15 -23 18 -47
8z"/>
<path d="M786 1847 c-11 -8 -15 -19 -10 -30 8 -21 24 -22 49 -3 16 12 17 16 6
30 -16 19 -22 20 -45 3z"/>
<path d="M1735 1740 c-18 -20 -18 -21 3 -42 17 -18 23 -19 36 -8 21 17 20 33
-2 54 -18 15 -20 15 -37 -4z"/>
<path d="M1063 1702 c-9 -6 9 -39 65 -121 l77 -113 3 113 c1 61 0 114 -3 117
-10 10 -129 13 -142 4z"/>
<path d="M956 1680 c-32 -10 -63 -23 -68 -28 -7 -7 15 -47 63 -117 40 -58 77
-108 81 -111 4 -3 8 58 8 135 0 107 -3 141 -12 140 -7 0 -39 -9 -72 -19z"/>
<path d="M1270 1684 c0 -2 25 -42 55 -87 l56 -82 -3 69 -3 69 -52 18 c-29 10
-53 16 -53 13z"/>
<path d="M791 1599 c-70 -46 -71 -34 13 -154 l56 -79 0 137 c0 75 -2 137 -4
137 -2 0 -31 -18 -65 -41z"/>
<path d="M1560 1384 c0 -149 7 -150 -99 5 l-71 104 0 -141 c0 -78 -3 -142 -7
-142 -5 0 -44 53 -88 118 l-80 117 -5 -145 -5 -145 -80 117 -80 117 -5 -146
-5 -145 -80 117 -80 118 -5 -144 -5 -144 -83 119 -82 120 0 -142 c0 -78 -3
-142 -7 -142 -5 0 -37 43 -72 95 -35 52 -69 91 -74 88 -15 -9 -1 -149 24 -228
21 -70 75 -171 104 -195 13 -11 15 2 15 111 0 144 -6 144 99 -10 l71 -104 0
141 c0 78 4 142 8 142 5 0 42 -50 82 -110 41 -61 78 -110 82 -110 4 0 9 62 10
138 l3 137 44 -65 c24 -36 60 -87 80 -115 l36 -50 5 144 5 143 80 -117 80
-118 5 144 5 144 83 -119 82 -120 0 142 c0 78 3 142 8 142 4 0 36 -43 71 -95
35 -52 69 -91 74 -88 15 9 1 149 -23 228 -21 66 -59 140 -101 194 -19 23 -19
22 -19 -105z"/>
<path d="M657 1468 c-39 -54 -39 -55 -2 -110 l35 -53 0 98 c0 53 -2 97 -4 97
-3 0 -16 -15 -29 -32z"/>
<path d="M1560 846 c0 -108 6 -112 50 -40 l21 33 -35 53 -36 53 0 -99z"/>
<path d="M1390 746 l0 -137 38 21 c20 12 49 31 64 43 l28 23 -56 84 c-31 47
-60 89 -65 95 -5 5 -9 -50 -9 -129z"/>
<path d="M1210 691 c0 -78 3 -141 8 -141 22 0 152 44 152 52 0 11 -140 217
-152 224 -4 3 -8 -58 -8 -135z"/>
<path d="M1040 668 c0 -130 -1 -128 85 -127 83 1 83 4 4 119 -39 58 -76 109
-80 115 -5 5 -9 -41 -9 -107z"/>
<path d="M870 668 l0 -67 53 -19 c28 -11 53 -19 55 -17 2 2 -22 41 -52 87
l-56 83 0 -67z"/>
</g>
</svg>
